<svg viewBox="0 0 200 200" xmlns="http://www.w3.org/2000/svg">
<mask id="mask0" mask-type="alpha">
  <svg viewBox="0 0 200 200" xmlns="http://www.w3.org/2000/svg">
  <path fill="#5F5A7A" d="M41.5,-66C55.8,-63.5,71,-56.6,75.8,-44.9C80.6,-33.2,75,-16.6,69.8,-3C64.6,10.6,59.9,21.2,56.1,34.7C52.3,48.2,49.6,64.7,40.4,75.1C31.2,85.5,15.6,89.9,-0.4,90.5C-16.3,91.1,-32.7,88,-42.2,77.8C-51.8,67.6,-54.6,50.4,-58.2,36.2C-61.9,22.1,-66.4,11,-66.7,-0.1C-66.9,-11.3,-62.9,-22.6,-55.4,-30.1C-47.8,-37.6,-36.8,-41.2,-27,-46.2C-17.2,-51.3,-8.6,-57.9,2.5,-62.2C13.6,-66.5,27.1,-68.4,41.5,-66Z" transform="translate(100 100)" />
</mask>

<g mask="url(#mask0)">
    <path fill="#5F5A7A" d="M41.5,-66C55.8,-63.5,71,-56.6,75.8,-44.9C80.6,-33.2,75,-16.6,69.8,-3C64.6,10.6,59.9,21.2,56.1,34.7C52.3,48.2,49.6,64.7,40.4,75.1C31.2,85.5,15.6,89.9,-0.4,90.5C-16.3,91.1,-32.7,88,-42.2,77.8C-51.8,67.6,-54.6,50.4,-58.2,36.2C-61.9,22.1,-66.4,11,-66.7,-0.1C-66.9,-11.3,-62.9,-22.6,-55.4,-30.1C-47.8,-37.6,-36.8,-41.2,-27,-46.2C-17.2,-51.3,-8.6,-57.9,2.5,-62.2C13.6,-66.5,27.1,-68.4,41.5,-66Z" transform="translate(100 100)" />

    <imgage xlink:href="#">
    </g>

</svg>
